<svg xmlns:dc="http://purl.org/dc/elements/1.1/" xmlns:cc="http://creativecommons.org/ns#" xmlns:rdf="http://www.w3.org/1999/02/22-rdf-syntax-ns#" xmlns:svg="http://www.w3.org/2000/svg" xmlns="http://www.w3.org/2000/svg" xmlns:xlink="http://www.w3.org/1999/xlink" xmlns:sodipodi="http://sodipodi.sourceforge.net/DTD/sodipodi-0.dtd" xmlns:inkscape="http://www.inkscape.org/namespaces/inkscape" width="595.275591pt" height="841.889764pt" viewBox="0 0 595.275591 841.889764" version="1.2" id="svg2203" sodipodi:docname="stencil_A1335.svg" inkscape:version="0.92.1 r15371">
  <metadata id="metadata2209">
    <rdf:RDF>
      <cc:Work rdf:about="">
        <dc:format>image/svg+xml</dc:format>
        <dc:type rdf:resource="http://purl.org/dc/dcmitype/StillImage"/>
        <dc:title/>
      </cc:Work>
    </rdf:RDF>
  </metadata>
  <defs id="defs2207"/>
  <sodipodi:namedview pagecolor="#ffffff" bordercolor="#666666" borderopacity="1" objecttolerance="10" gridtolerance="10" guidetolerance="10" inkscape:pageopacity="0" inkscape:pageshadow="2" inkscape:window-width="1366" inkscape:window-height="746" id="namedview2205" showgrid="false" inkscape:zoom="11.313709" inkscape:cx="120.43428" inkscape:cy="175.66342" inkscape:window-x="-8" inkscape:window-y="-8" inkscape:window-maximized="1" inkscape:current-layer="layer3" inkscape:snap-smooth-nodes="true" inkscape:snap-midpoints="true" showguides="true" inkscape:guide-bbox="true" inkscape:snap-center="true">
    <sodipodi:guide position="85.745095,94.643949" orientation="1,0" id="guide12433" inkscape:locked="false"/>
    <sodipodi:guide position="48.30762,91.523549" orientation="1,0" id="guide12443" inkscape:locked="false"/>
    <sodipodi:guide position="67.026126,94.643684" orientation="1,0" id="guide12445" inkscape:locked="false"/>
  </sodipodi:namedview>
  <svg:g inkscape:groupmode="layer" id="layer2" inkscape:label="Front" style="display:inline">
    <svg:g id="surface26958" transform="rotate(-90,355.91149,705.975)">
      <svg:path style="fill:#000000;fill-opacity:1;fill-rule:evenodd;stroke:#000000;stroke-width:1.00000405;stroke-linecap:round;stroke-linejoin:round;stroke-miterlimit:10;stroke-opacity:1" d="m 1813.9938,1263.9974 v 4.9967 h -18.0013 v -4.9967 z m 0,0" transform="matrix(0,-0.24,0.24,0,0,841.88976)" id="path2174" inkscape:connector-curvature="0"/>
      <svg:path style="fill:#000000;fill-opacity:1;fill-rule:evenodd;stroke:#000000;stroke-width:1.00000405;stroke-linecap:round;stroke-linejoin:round;stroke-miterlimit:10;stroke-opacity:1" d="m 1813.9938,1256.0059 v 5.9895 h -18.0013 v -5.9895 z m 0,0" transform="matrix(0,-0.24,0.24,0,0,841.88976)" id="path2176" inkscape:connector-curvature="0"/>
      <svg:path style="fill:#000000;fill-opacity:1;fill-rule:evenodd;stroke:#000000;stroke-width:1.00000405;stroke-linecap:round;stroke-linejoin:round;stroke-miterlimit:10;stroke-opacity:1" d="m 1813.9938,1249.0072 v 4.9967 h -18.0013 v -4.9967 z m 0,0" transform="matrix(0,-0.24,0.24,0,0,841.88976)" id="path2178" inkscape:connector-curvature="0"/>
      <svg:path style="fill:#000000;fill-opacity:1;fill-rule:evenodd;stroke:#000000;stroke-width:1.00000405;stroke-linecap:round;stroke-linejoin:round;stroke-miterlimit:10;stroke-opacity:1" d="m 1813.9938,1240.9993 v 4.9968 h -18.0013 v -4.9968 z m 0,0" transform="matrix(0,-0.24,0.24,0,0,841.88976)" id="path2180" inkscape:connector-curvature="0"/>
      <svg:path style="fill:#000000;fill-opacity:1;fill-rule:evenodd;stroke:#000000;stroke-width:1.00000405;stroke-linecap:round;stroke-linejoin:round;stroke-miterlimit:10;stroke-opacity:1" d="m 1813.9938,1233.0078 v 5.9896 h -18.0013 v -5.9896 z m 0,0" transform="matrix(0,-0.24,0.24,0,0,841.88976)" id="path2182" inkscape:connector-curvature="0"/>
      <svg:path style="fill:#000000;fill-opacity:1;fill-rule:evenodd;stroke:#000000;stroke-width:1.00000405;stroke-linecap:round;stroke-linejoin:round;stroke-miterlimit:10;stroke-opacity:1" d="m 1813.9938,1225.9928 v 5.0131 h -18.0013 v -5.0131 z m 0,0" transform="matrix(0,-0.24,0.24,0,0,841.88976)" id="path2184" inkscape:connector-curvature="0"/>
      <svg:path style="fill:#000000;fill-opacity:1;fill-rule:evenodd;stroke:#000000;stroke-width:1.00000405;stroke-linecap:round;stroke-linejoin:round;stroke-miterlimit:10;stroke-opacity:1" d="m 1813.9938,1218.0013 v 4.9967 h -18.0013 v -4.9967 z m 0,0" transform="matrix(0,-0.24,0.24,0,0,841.88976)" id="path2186" inkscape:connector-curvature="0"/>
      <svg:path style="fill:#000000;fill-opacity:1;fill-rule:evenodd;stroke:#000000;stroke-width:1.00000405;stroke-linecap:round;stroke-linejoin:round;stroke-miterlimit:10;stroke-opacity:1" d="m 1744.0068,1218.0013 v 4.9967 h -17.0084 v -4.9967 z m 0,0" transform="matrix(0,-0.24,0.24,0,0,841.88976)" id="path2188" inkscape:connector-curvature="0"/>
      <svg:path style="fill:#000000;fill-opacity:1;fill-rule:evenodd;stroke:#000000;stroke-width:1.00000405;stroke-linecap:round;stroke-linejoin:round;stroke-miterlimit:10;stroke-opacity:1" d="m 1744.0068,1225.9928 v 5.0131 h -17.0084 v -5.0131 z m 0,0" transform="matrix(0,-0.24,0.24,0,0,841.88976)" id="path2190" inkscape:connector-curvature="0"/>
      <svg:path style="fill:#000000;fill-opacity:1;fill-rule:evenodd;stroke:#000000;stroke-width:1.00000405;stroke-linecap:round;stroke-linejoin:round;stroke-miterlimit:10;stroke-opacity:1" d="m 1744.0068,1233.0078 v 5.9896 h -17.0084 v -5.9896 z m 0,0" transform="matrix(0,-0.24,0.24,0,0,841.88976)" id="path2192" inkscape:connector-curvature="0"/>
      <svg:path style="fill:#000000;fill-opacity:1;fill-rule:evenodd;stroke:#000000;stroke-width:1.00000405;stroke-linecap:round;stroke-linejoin:round;stroke-miterlimit:10;stroke-opacity:1" d="m 1744.0068,1240.9993 v 4.9968 h -17.0084 v -4.9968 z m 0,0" transform="matrix(0,-0.24,0.24,0,0,841.88976)" id="path2194" inkscape:connector-curvature="0"/>
      <svg:path style="fill:#000000;fill-opacity:1;fill-rule:evenodd;stroke:#000000;stroke-width:1.00000405;stroke-linecap:round;stroke-linejoin:round;stroke-miterlimit:10;stroke-opacity:1" d="m 1744.0068,1249.0072 v 4.9967 h -17.0084 v -4.9967 z m 0,0" transform="matrix(0,-0.24,0.24,0,0,841.88976)" id="path2196" inkscape:connector-curvature="0"/>
      <svg:path style="fill:#000000;fill-opacity:1;fill-rule:evenodd;stroke:#000000;stroke-width:1.00000405;stroke-linecap:round;stroke-linejoin:round;stroke-miterlimit:10;stroke-opacity:1" d="m 1744.0068,1256.0059 v 5.9895 h -17.0084 v -5.9895 z m 0,0" transform="matrix(0,-0.24,0.24,0,0,841.88976)" id="path2198" inkscape:connector-curvature="0"/>
      <svg:path style="fill:#000000;fill-opacity:1;fill-rule:evenodd;stroke:#000000;stroke-width:1.00000405;stroke-linecap:round;stroke-linejoin:round;stroke-miterlimit:10;stroke-opacity:1" d="m 1744.0068,1263.9974 v 4.9967 h -17.0084 v -4.9967 z m 0,0" transform="matrix(0,-0.24,0.24,0,0,841.88976)" id="path2200" inkscape:connector-curvature="0"/>
    </svg:g>
    <svg:use x="0" y="0" xlink:href="#surface26958" id="use12501" transform="translate(56.69333)" width="100%" height="100%"/>
    <svg:use x="0" y="0" xlink:href="#use12501" id="use12509" transform="translate(56.692916)" width="100%" height="100%"/>
    <svg:use x="0" y="0" xlink:href="#use12501" id="use12519" transform="translate(-28.346458,-56.693794)" width="100%" height="100%"/>
    <svg:use x="0" y="0" xlink:href="#use12509" id="use12521" transform="translate(-28.346458,-56.693794)" width="100%" height="100%"/>
  </svg:g>
  </svg>