<?xml version="1.0" encoding="UTF-8" standalone="no"?>
<svg
   xmlns:dc="http://purl.org/dc/elements/1.1/"
   xmlns:cc="http://creativecommons.org/ns#"
   xmlns:rdf="http://www.w3.org/1999/02/22-rdf-syntax-ns#"
   xmlns:svg="http://www.w3.org/2000/svg"
   xmlns="http://www.w3.org/2000/svg"
   xmlns:xlink="http://www.w3.org/1999/xlink"
   xmlns:sodipodi="http://sodipodi.sourceforge.net/DTD/sodipodi-0.dtd"
   xmlns:inkscape="http://www.inkscape.org/namespaces/inkscape"
   width="595.275591pt"
   height="841.889764pt"
   viewBox="0 0 595.275591 841.889764"
   version="1.2"
   id="svg2203"
   sodipodi:docname="stencil_A1335.svg"
   inkscape:version="0.92.1 r15371">
  <metadata
     id="metadata2209">
    <rdf:RDF>
      <cc:Work
         rdf:about="">
        <dc:format>image/svg+xml</dc:format>
        <dc:type
           rdf:resource="http://purl.org/dc/dcmitype/StillImage" />
        <dc:title></dc:title>
      </cc:Work>
    </rdf:RDF>
  </metadata>
  <defs
     id="defs2207" />
  <sodipodi:namedview
     pagecolor="#ffffff"
     bordercolor="#666666"
     borderopacity="1"
     objecttolerance="10"
     gridtolerance="10"
     guidetolerance="10"
     inkscape:pageopacity="0"
     inkscape:pageshadow="2"
     inkscape:window-width="1366"
     inkscape:window-height="746"
     id="namedview2205"
     showgrid="false"
     inkscape:zoom="11.313709"
     inkscape:cx="93.696855"
     inkscape:cy="113.18402"
     inkscape:window-x="-8"
     inkscape:window-y="-8"
     inkscape:window-maximized="1"
     inkscape:current-layer="layer3"
     inkscape:snap-smooth-nodes="true"
     inkscape:snap-midpoints="true"
     showguides="true"
     inkscape:guide-bbox="true"
     inkscape:snap-center="true">
    <sodipodi:guide
       position="85.745095,94.643949"
       orientation="1,0"
       id="guide12433"
       inkscape:locked="false" />
    <sodipodi:guide
       position="48.30762,91.523549"
       orientation="1,0"
       id="guide12443"
       inkscape:locked="false" />
    <sodipodi:guide
       position="67.026126,94.643684"
       orientation="1,0"
       id="guide12445"
       inkscape:locked="false" />
  </sodipodi:namedview>
  <g
     inkscape:groupmode="layer"
     id="layer4"
     inkscape:label="Legacy"
     sodipodi:insensitive="true"
     style="display:none">
    <g
       id="g12409"
       transform="rotate(-90,355.9115,705.97499)"
       style="display:inline">
      <path
         style="fill:none;stroke:#000000;stroke-width:1.77165401;stroke-linecap:round;stroke-linejoin:round;stroke-miterlimit:10;stroke-opacity:1"
         d="m 1835.0062,1311.0026 h -34.0007"
         transform="matrix(0,-0.24,0.24,0,0,841.88976)"
         id="path12389"
         inkscape:connector-curvature="0" />
      <path
         style="fill:none;stroke:#000000;stroke-width:1.77165401;stroke-linecap:round;stroke-linejoin:round;stroke-miterlimit:10;stroke-opacity:1"
         d="m 1801.0055,1311.0026 c 0,-17.334 -26.0091,-17.334 -26.0091,0"
         transform="matrix(0,-0.24,0.24,0,0,841.88976)"
         id="path12391"
         inkscape:connector-curvature="0" />
      <path
         style="fill:none;stroke:#000000;stroke-width:1.77165401;stroke-linecap:round;stroke-linejoin:round;stroke-miterlimit:10;stroke-opacity:1"
         d="m 1847.9945,1297.998 c -7.1778,0 -12.9883,5.8269 -12.9883,13.0046"
         transform="matrix(0,-0.24,0.24,0,0,841.88976)"
         id="path12393"
         inkscape:connector-curvature="0" />
      <path
         style="fill:none;stroke:#000000;stroke-width:1.77165401;stroke-linecap:round;stroke-linejoin:round;stroke-miterlimit:10;stroke-opacity:1"
         d="m 1704.9932,1311.0026 c 0,-7.1777 -5.8106,-13.0046 -12.9883,-13.0046"
         transform="matrix(0,-0.24,0.24,0,0,841.88976)"
         id="path12395"
         inkscape:connector-curvature="0" />
      <path
         style="fill:none;stroke:#000000;stroke-width:1.77165401;stroke-linecap:round;stroke-linejoin:round;stroke-miterlimit:10;stroke-opacity:1"
         d="m 1692.0049,1154.9967 v 58.0079"
         transform="matrix(0,-0.24,0.24,0,0,841.88976)"
         id="path12397"
         inkscape:connector-curvature="0" />
      <path
         style="fill:none;stroke:#000000;stroke-width:1.77165401;stroke-linecap:round;stroke-linejoin:round;stroke-miterlimit:10;stroke-opacity:1"
         d="m 1692.0049,1238.9974 c 17.334,0 17.334,-25.9928 0,-25.9928"
         transform="matrix(0,-0.24,0.24,0,0,841.88976)"
         id="path12399"
         inkscape:connector-curvature="0" />
      <path
         style="fill:none;stroke:#000000;stroke-width:1.77165401;stroke-linecap:round;stroke-linejoin:round;stroke-miterlimit:10;stroke-opacity:1"
         d="m 1692.0049,1297.998 v -59.0006"
         transform="matrix(0,-0.24,0.24,0,0,841.88976)"
         id="path12401"
         inkscape:connector-curvature="0" />
      <path
         style="fill:none;stroke:#000000;stroke-width:1.77165401;stroke-linecap:round;stroke-linejoin:round;stroke-miterlimit:10;stroke-opacity:1"
         d="m 1774.9964,1311.0026 h -70.0032"
         transform="matrix(0,-0.24,0.24,0,0,841.88976)"
         id="path12403"
         inkscape:connector-curvature="0" />
      <path
         style="fill:none;stroke:#000000;stroke-width:1.77165401;stroke-linecap:round;stroke-linejoin:round;stroke-miterlimit:10;stroke-opacity:1"
         d="M 1847.9945,1154.9967 V 1297.998"
         transform="matrix(0,-0.24,0.24,0,0,841.88976)"
         id="path12405"
         inkscape:connector-curvature="0" />
      <path
         style="fill:none;stroke:#000000;stroke-width:1.77165401;stroke-linecap:round;stroke-linejoin:round;stroke-miterlimit:10;stroke-opacity:1"
         d="m 1692.0049,1154.9967 h 155.9896"
         transform="matrix(0,-0.24,0.24,0,0,841.88976)"
         id="path12407"
         inkscape:connector-curvature="0" />
    </g>
  </g>
  <g
     inkscape:groupmode="layer"
     id="layer1"
     inkscape:label="Back"
     style="display:inline"
     sodipodi:insensitive="true">
    <g
       id="surface28946"
       transform="matrix(0,-1,-1,0,484.11575,1061.8865)"
       inkscape:transform-center-x="-11.400176"
       inkscape:transform-center-y="-2.0550091">
      <path
         id="path8053"
         d="m 1804.0003,1222.998 v -9.0006 h 9.0007 v 9.0006 z m 0,0"
         style="fill:#000000;fill-opacity:1;fill-rule:evenodd;stroke:#000000;stroke-width:1.00000405;stroke-linecap:round;stroke-linejoin:round;stroke-miterlimit:10;stroke-opacity:1"
         inkscape:connector-curvature="0"
         transform="matrix(0,-0.24,0.24,0,0,841.88976)" />
      <path
         id="path8055"
         d="m 1822.0016,1222.998 v -9.0006 h 9.0007 v 9.0006 z m 0,0"
         style="fill:#000000;fill-opacity:1;fill-rule:evenodd;stroke:#000000;stroke-width:1.00000405;stroke-linecap:round;stroke-linejoin:round;stroke-miterlimit:10;stroke-opacity:1"
         inkscape:connector-curvature="0"
         transform="matrix(0,-0.24,0.24,0,0,841.88976)" />
      <path
         id="path8057"
         d="m 1804.0003,1240.0065 v -8.0078 h 9.0007 v 8.0078 z m 0,0"
         style="fill:#000000;fill-opacity:1;fill-rule:evenodd;stroke:#000000;stroke-width:1.00000405;stroke-linecap:round;stroke-linejoin:round;stroke-miterlimit:10;stroke-opacity:1"
         inkscape:connector-curvature="0"
         transform="matrix(0,-0.24,0.24,0,0,841.88976)" />
      <path
         id="path8059"
         d="m 1822.0016,1240.0065 v -8.0078 h 9.0007 v 8.0078 z m 0,0"
         style="fill:#000000;fill-opacity:1;fill-rule:evenodd;stroke:#000000;stroke-width:1.00000405;stroke-linecap:round;stroke-linejoin:round;stroke-miterlimit:10;stroke-opacity:1"
         inkscape:connector-curvature="0"
         transform="matrix(0,-0.24,0.24,0,0,841.88976)" />
    </g>
    <use
       x="0"
       y="0"
       xlink:href="#surface28946"
       inkscape:transform-center-x="-11.400176"
       inkscape:transform-center-y="-2.0550091"
       id="use12499"
       transform="translate(56.69333)"
       width="100%"
       height="100%" />
    <use
       x="0"
       y="0"
       xlink:href="#use12499"
       inkscape:transform-center-x="-11.400176"
       inkscape:transform-center-y="-2.0550091"
       id="use12507"
       transform="translate(56.692916)"
       width="100%"
       height="100%" />
    <use
       x="0"
       y="0"
       xlink:href="#use12499"
       inkscape:transform-center-x="-11.400176"
       inkscape:transform-center-y="-2.0550091"
       id="use12515"
       transform="translate(-28.346458,-56.693794)"
       width="100%"
       height="100%" />
    <use
       x="0"
       y="0"
       xlink:href="#use12507"
       inkscape:transform-center-x="-11.400176"
       inkscape:transform-center-y="-2.0550091"
       id="use12517"
       transform="translate(-28.346458,-56.693794)"
       width="100%"
       height="100%" />
  </g>
  <g
     inkscape:groupmode="layer"
     id="layer2"
     inkscape:label="Front"
     style="display:inline"
     sodipodi:insensitive="true">
    <g
       id="surface26958"
       transform="rotate(-90,355.91149,705.975)">
      <path
         style="fill:#000000;fill-opacity:1;fill-rule:evenodd;stroke:#000000;stroke-width:1.00000405;stroke-linecap:round;stroke-linejoin:round;stroke-miterlimit:10;stroke-opacity:1"
         d="m 1813.9938,1263.9974 v 4.9967 h -18.0013 v -4.9967 z m 0,0"
         transform="matrix(0,-0.24,0.24,0,0,841.88976)"
         id="path2174"
         inkscape:connector-curvature="0" />
      <path
         style="fill:#000000;fill-opacity:1;fill-rule:evenodd;stroke:#000000;stroke-width:1.00000405;stroke-linecap:round;stroke-linejoin:round;stroke-miterlimit:10;stroke-opacity:1"
         d="m 1813.9938,1256.0059 v 5.9895 h -18.0013 v -5.9895 z m 0,0"
         transform="matrix(0,-0.24,0.24,0,0,841.88976)"
         id="path2176"
         inkscape:connector-curvature="0" />
      <path
         style="fill:#000000;fill-opacity:1;fill-rule:evenodd;stroke:#000000;stroke-width:1.00000405;stroke-linecap:round;stroke-linejoin:round;stroke-miterlimit:10;stroke-opacity:1"
         d="m 1813.9938,1249.0072 v 4.9967 h -18.0013 v -4.9967 z m 0,0"
         transform="matrix(0,-0.24,0.24,0,0,841.88976)"
         id="path2178"
         inkscape:connector-curvature="0" />
      <path
         style="fill:#000000;fill-opacity:1;fill-rule:evenodd;stroke:#000000;stroke-width:1.00000405;stroke-linecap:round;stroke-linejoin:round;stroke-miterlimit:10;stroke-opacity:1"
         d="m 1813.9938,1240.9993 v 4.9968 h -18.0013 v -4.9968 z m 0,0"
         transform="matrix(0,-0.24,0.24,0,0,841.88976)"
         id="path2180"
         inkscape:connector-curvature="0" />
      <path
         style="fill:#000000;fill-opacity:1;fill-rule:evenodd;stroke:#000000;stroke-width:1.00000405;stroke-linecap:round;stroke-linejoin:round;stroke-miterlimit:10;stroke-opacity:1"
         d="m 1813.9938,1233.0078 v 5.9896 h -18.0013 v -5.9896 z m 0,0"
         transform="matrix(0,-0.24,0.24,0,0,841.88976)"
         id="path2182"
         inkscape:connector-curvature="0" />
      <path
         style="fill:#000000;fill-opacity:1;fill-rule:evenodd;stroke:#000000;stroke-width:1.00000405;stroke-linecap:round;stroke-linejoin:round;stroke-miterlimit:10;stroke-opacity:1"
         d="m 1813.9938,1225.9928 v 5.0131 h -18.0013 v -5.0131 z m 0,0"
         transform="matrix(0,-0.24,0.24,0,0,841.88976)"
         id="path2184"
         inkscape:connector-curvature="0" />
      <path
         style="fill:#000000;fill-opacity:1;fill-rule:evenodd;stroke:#000000;stroke-width:1.00000405;stroke-linecap:round;stroke-linejoin:round;stroke-miterlimit:10;stroke-opacity:1"
         d="m 1813.9938,1218.0013 v 4.9967 h -18.0013 v -4.9967 z m 0,0"
         transform="matrix(0,-0.24,0.24,0,0,841.88976)"
         id="path2186"
         inkscape:connector-curvature="0" />
      <path
         style="fill:#000000;fill-opacity:1;fill-rule:evenodd;stroke:#000000;stroke-width:1.00000405;stroke-linecap:round;stroke-linejoin:round;stroke-miterlimit:10;stroke-opacity:1"
         d="m 1744.0068,1218.0013 v 4.9967 h -17.0084 v -4.9967 z m 0,0"
         transform="matrix(0,-0.24,0.24,0,0,841.88976)"
         id="path2188"
         inkscape:connector-curvature="0" />
      <path
         style="fill:#000000;fill-opacity:1;fill-rule:evenodd;stroke:#000000;stroke-width:1.00000405;stroke-linecap:round;stroke-linejoin:round;stroke-miterlimit:10;stroke-opacity:1"
         d="m 1744.0068,1225.9928 v 5.0131 h -17.0084 v -5.0131 z m 0,0"
         transform="matrix(0,-0.24,0.24,0,0,841.88976)"
         id="path2190"
         inkscape:connector-curvature="0" />
      <path
         style="fill:#000000;fill-opacity:1;fill-rule:evenodd;stroke:#000000;stroke-width:1.00000405;stroke-linecap:round;stroke-linejoin:round;stroke-miterlimit:10;stroke-opacity:1"
         d="m 1744.0068,1233.0078 v 5.9896 h -17.0084 v -5.9896 z m 0,0"
         transform="matrix(0,-0.24,0.24,0,0,841.88976)"
         id="path2192"
         inkscape:connector-curvature="0" />
      <path
         style="fill:#000000;fill-opacity:1;fill-rule:evenodd;stroke:#000000;stroke-width:1.00000405;stroke-linecap:round;stroke-linejoin:round;stroke-miterlimit:10;stroke-opacity:1"
         d="m 1744.0068,1240.9993 v 4.9968 h -17.0084 v -4.9968 z m 0,0"
         transform="matrix(0,-0.24,0.24,0,0,841.88976)"
         id="path2194"
         inkscape:connector-curvature="0" />
      <path
         style="fill:#000000;fill-opacity:1;fill-rule:evenodd;stroke:#000000;stroke-width:1.00000405;stroke-linecap:round;stroke-linejoin:round;stroke-miterlimit:10;stroke-opacity:1"
         d="m 1744.0068,1249.0072 v 4.9967 h -17.0084 v -4.9967 z m 0,0"
         transform="matrix(0,-0.24,0.24,0,0,841.88976)"
         id="path2196"
         inkscape:connector-curvature="0" />
      <path
         style="fill:#000000;fill-opacity:1;fill-rule:evenodd;stroke:#000000;stroke-width:1.00000405;stroke-linecap:round;stroke-linejoin:round;stroke-miterlimit:10;stroke-opacity:1"
         d="m 1744.0068,1256.0059 v 5.9895 h -17.0084 v -5.9895 z m 0,0"
         transform="matrix(0,-0.24,0.24,0,0,841.88976)"
         id="path2198"
         inkscape:connector-curvature="0" />
      <path
         style="fill:#000000;fill-opacity:1;fill-rule:evenodd;stroke:#000000;stroke-width:1.00000405;stroke-linecap:round;stroke-linejoin:round;stroke-miterlimit:10;stroke-opacity:1"
         d="m 1744.0068,1263.9974 v 4.9967 h -17.0084 v -4.9967 z m 0,0"
         transform="matrix(0,-0.24,0.24,0,0,841.88976)"
         id="path2200"
         inkscape:connector-curvature="0" />
    </g>
    <use
       x="0"
       y="0"
       xlink:href="#surface26958"
       id="use12501"
       transform="translate(56.69333)"
       width="100%"
       height="100%" />
    <use
       x="0"
       y="0"
       xlink:href="#use12501"
       id="use12509"
       transform="translate(56.692916)"
       width="100%"
       height="100%" />
    <use
       x="0"
       y="0"
       xlink:href="#use12501"
       id="use12519"
       transform="translate(-28.346458,-56.693794)"
       width="100%"
       height="100%" />
    <use
       x="0"
       y="0"
       xlink:href="#use12509"
       id="use12521"
       transform="translate(-28.346458,-56.693794)"
       width="100%"
       height="100%" />
  </g>
  <g
     inkscape:groupmode="layer"
     id="layer3"
     inkscape:label="Cut"
     style="display:inline">
    <path
       sodipodi:type="inkscape:offset"
       inkscape:radius="0"
       inkscape:original="M 68.566406 996.32812 C 68.566406 998.625 66.707052 1000.4883 64.410156 1000.4883 L 64.410156 1046.25 L 114.32617 1046.25 L 114.32617 1000.4883 C 112.02928 1000.4883 110.16992 998.62499 110.16992 996.32812 L 68.566406 996.32812 z M 69.666016 1004.8906 L 109.43164 1004.8906 L 109.43164 1035.5312 L 69.666016 1035.5312 L 69.666016 1004.8906 z "
       style="fill:#000000;fill-opacity:1;stroke:none;stroke-width:0.13333333;stroke-miterlimit:4;stroke-dasharray:none;stroke-opacity:1"
       id="rect12423"
       d="m 68.566406,996.32812 c 0,2.29688 -1.859354,4.16018 -4.15625,4.16018 v 45.7617 h 49.916014 v -45.7617 c -2.29689,0 -4.15625,-1.86331 -4.15625,-4.16018 z m 1.09961,8.56248 h 39.765624 v 30.6406 H 69.666016 Z"
       transform="scale(0.75000003)" />
    <rect
       id="rect11582"
       width="29.82362"
       height="22.979948"
       x="52.250004"
       y="753.66785"
       style="fill:none;stroke:#ff0000;stroke-width:0.11327611;stroke-miterlimit:4;stroke-dasharray:none;stroke-opacity:1" />
    <use
       x="0"
       y="0"
       xlink:href="#rect12423"
       id="use12503"
       transform="translate(56.69333)"
       width="100%"
       height="100%" />
    <use
       x="0"
       y="0"
       xlink:href="#rect11582"
       id="use12505"
       transform="translate(56.69333)"
       width="100%"
       height="100%" />
    <use
       x="0"
       y="0"
       xlink:href="#use12503"
       id="use12511"
       transform="translate(56.692916)"
       width="100%"
       height="100%" />
    <use
       x="0"
       y="0"
       xlink:href="#use12505"
       id="use12513"
       transform="translate(56.692916)"
       width="100%"
       height="100%" />
    <use
       x="0"
       y="0"
       xlink:href="#use12503"
       id="use12523"
       transform="translate(-28.346458,-56.693794)"
       width="100%"
       height="100%"
       style="opacity:1" />
    <use
       x="0"
       y="0"
       xlink:href="#use12505"
       id="use12525"
       transform="translate(-28.346458,-56.693794)"
       width="100%"
       height="100%" />
    <use
       x="0"
       y="0"
       xlink:href="#use12511"
       id="use12527"
       transform="translate(-28.346458,-56.693794)"
       width="100%"
       height="100%" />
    <use
       x="0"
       y="0"
       xlink:href="#use12513"
       id="use12529"
       transform="translate(-28.346458,-56.693794)"
       width="100%"
       height="100%" />
  </g>
</svg>
