<?xml version="1.0" encoding="UTF-8" standalone="no"?>
<svg
   xmlns:dc="http://purl.org/dc/elements/1.1/"
   xmlns:cc="http://creativecommons.org/ns#"
   xmlns:rdf="http://www.w3.org/1999/02/22-rdf-syntax-ns#"
   xmlns:svg="http://www.w3.org/2000/svg"
   xmlns="http://www.w3.org/2000/svg"
   xmlns:xlink="http://www.w3.org/1999/xlink"
   id="svg2203"
   version="1.2"
   viewBox="0 0 595.275591 841.889764"
   height="841.889764pt"
   width="595.275591pt">
  <metadata
     id="metadata2209">
    <rdf:RDF>
      <cc:Work
         rdf:about="">
        <dc:format>image/svg+xml</dc:format>
        <dc:type
           rdf:resource="http://purl.org/dc/dcmitype/StillImage" />
        <dc:title></dc:title>
      </cc:Work>
    </rdf:RDF>
  </metadata>
  <defs
     id="defs2207" />
  <g
     style="display:none"
     id="layer4">
    <g
       style="display:inline"
       transform="rotate(-90,355.9115,705.97499)"
       id="g12409">
      <path
         id="path12389"
         transform="matrix(0,-0.24,0.24,0,0,841.88976)"
         d="m 1835.0062,1311.0026 h -34.0007"
         style="fill:none;stroke:#000000;stroke-width:1.77165401;stroke-linecap:round;stroke-linejoin:round;stroke-miterlimit:10;stroke-opacity:1" />
      <path
         id="path12391"
         transform="matrix(0,-0.24,0.24,0,0,841.88976)"
         d="m 1801.0055,1311.0026 c 0,-17.334 -26.0091,-17.334 -26.0091,0"
         style="fill:none;stroke:#000000;stroke-width:1.77165401;stroke-linecap:round;stroke-linejoin:round;stroke-miterlimit:10;stroke-opacity:1" />
      <path
         id="path12393"
         transform="matrix(0,-0.24,0.24,0,0,841.88976)"
         d="m 1847.9945,1297.998 c -7.1778,0 -12.9883,5.8269 -12.9883,13.0046"
         style="fill:none;stroke:#000000;stroke-width:1.77165401;stroke-linecap:round;stroke-linejoin:round;stroke-miterlimit:10;stroke-opacity:1" />
      <path
         id="path12395"
         transform="matrix(0,-0.24,0.24,0,0,841.88976)"
         d="m 1704.9932,1311.0026 c 0,-7.1777 -5.8106,-13.0046 -12.9883,-13.0046"
         style="fill:none;stroke:#000000;stroke-width:1.77165401;stroke-linecap:round;stroke-linejoin:round;stroke-miterlimit:10;stroke-opacity:1" />
      <path
         id="path12397"
         transform="matrix(0,-0.24,0.24,0,0,841.88976)"
         d="m 1692.0049,1154.9967 v 58.0079"
         style="fill:none;stroke:#000000;stroke-width:1.77165401;stroke-linecap:round;stroke-linejoin:round;stroke-miterlimit:10;stroke-opacity:1" />
      <path
         id="path12399"
         transform="matrix(0,-0.24,0.24,0,0,841.88976)"
         d="m 1692.0049,1238.9974 c 17.334,0 17.334,-25.9928 0,-25.9928"
         style="fill:none;stroke:#000000;stroke-width:1.77165401;stroke-linecap:round;stroke-linejoin:round;stroke-miterlimit:10;stroke-opacity:1" />
      <path
         id="path12401"
         transform="matrix(0,-0.24,0.24,0,0,841.88976)"
         d="m 1692.0049,1297.998 v -59.0006"
         style="fill:none;stroke:#000000;stroke-width:1.77165401;stroke-linecap:round;stroke-linejoin:round;stroke-miterlimit:10;stroke-opacity:1" />
      <path
         id="path12403"
         transform="matrix(0,-0.24,0.24,0,0,841.88976)"
         d="m 1774.9964,1311.0026 h -70.0032"
         style="fill:none;stroke:#000000;stroke-width:1.77165401;stroke-linecap:round;stroke-linejoin:round;stroke-miterlimit:10;stroke-opacity:1" />
      <path
         id="path12405"
         transform="matrix(0,-0.24,0.24,0,0,841.88976)"
         d="M 1847.9945,1154.9967 V 1297.998"
         style="fill:none;stroke:#000000;stroke-width:1.77165401;stroke-linecap:round;stroke-linejoin:round;stroke-miterlimit:10;stroke-opacity:1" />
      <path
         id="path12407"
         transform="matrix(0,-0.24,0.24,0,0,841.88976)"
         d="m 1692.0049,1154.9967 h 155.9896"
         style="fill:none;stroke:#000000;stroke-width:1.77165401;stroke-linecap:round;stroke-linejoin:round;stroke-miterlimit:10;stroke-opacity:1" />
    </g>
  </g>
  <g
     style="display:inline"
     id="layer1">
    <g
       transform="matrix(0,-1,-1,0,484.11575,1061.8865)"
       id="surface28946">
      <path
         transform="matrix(0,-0.24,0.24,0,0,841.88976)"
         style="fill:#000000;fill-opacity:1;fill-rule:evenodd;stroke:#000000;stroke-width:1.00000405;stroke-linecap:round;stroke-linejoin:round;stroke-miterlimit:10;stroke-opacity:1"
         d="m 1804.0003,1222.998 v -9.0006 h 9.0007 v 9.0006 z m 0,0"
         id="path8053" />
      <path
         transform="matrix(0,-0.24,0.24,0,0,841.88976)"
         style="fill:#000000;fill-opacity:1;fill-rule:evenodd;stroke:#000000;stroke-width:1.00000405;stroke-linecap:round;stroke-linejoin:round;stroke-miterlimit:10;stroke-opacity:1"
         d="m 1822.0016,1222.998 v -9.0006 h 9.0007 v 9.0006 z m 0,0"
         id="path8055" />
      <path
         transform="matrix(0,-0.24,0.24,0,0,841.88976)"
         style="fill:#000000;fill-opacity:1;fill-rule:evenodd;stroke:#000000;stroke-width:1.00000405;stroke-linecap:round;stroke-linejoin:round;stroke-miterlimit:10;stroke-opacity:1"
         d="m 1804.0003,1240.0065 v -8.0078 h 9.0007 v 8.0078 z m 0,0"
         id="path8057" />
      <path
         transform="matrix(0,-0.24,0.24,0,0,841.88976)"
         style="fill:#000000;fill-opacity:1;fill-rule:evenodd;stroke:#000000;stroke-width:1.00000405;stroke-linecap:round;stroke-linejoin:round;stroke-miterlimit:10;stroke-opacity:1"
         d="m 1822.0016,1240.0065 v -8.0078 h 9.0007 v 8.0078 z m 0,0"
         id="path8059" />
    </g>
    <use
       height="100%"
       width="100%"
       transform="translate(56.69333)"
       id="use12499"
       xlink:href="#surface28946"
       y="0"
       x="0" />
    <use
       height="100%"
       width="100%"
       transform="translate(56.692916)"
       id="use12507"
       xlink:href="#use12499"
       y="0"
       x="0" />
    <use
       height="100%"
       width="100%"
       transform="translate(-28.346458,-56.693794)"
       id="use12515"
       xlink:href="#use12499"
       y="0"
       x="0" />
    <use
       height="100%"
       width="100%"
       transform="translate(-28.346458,-56.693794)"
       id="use12517"
       xlink:href="#use12507"
       y="0"
       x="0" />
  </g>
  <g
     style="display:inline"
     id="layer2">
    <g
       transform="rotate(-90,355.91149,705.975)"
       id="surface26958">
      <path
         id="path2174"
         transform="matrix(0,-0.24,0.24,0,0,841.88976)"
         d="m 1813.9938,1263.9974 v 4.9967 h -18.0013 v -4.9967 z m 0,0"
         style="fill:#000000;fill-opacity:1;fill-rule:evenodd;stroke:#000000;stroke-width:1.00000405;stroke-linecap:round;stroke-linejoin:round;stroke-miterlimit:10;stroke-opacity:1" />
      <path
         id="path2176"
         transform="matrix(0,-0.24,0.24,0,0,841.88976)"
         d="m 1813.9938,1256.0059 v 5.9895 h -18.0013 v -5.9895 z m 0,0"
         style="fill:#000000;fill-opacity:1;fill-rule:evenodd;stroke:#000000;stroke-width:1.00000405;stroke-linecap:round;stroke-linejoin:round;stroke-miterlimit:10;stroke-opacity:1" />
      <path
         id="path2178"
         transform="matrix(0,-0.24,0.24,0,0,841.88976)"
         d="m 1813.9938,1249.0072 v 4.9967 h -18.0013 v -4.9967 z m 0,0"
         style="fill:#000000;fill-opacity:1;fill-rule:evenodd;stroke:#000000;stroke-width:1.00000405;stroke-linecap:round;stroke-linejoin:round;stroke-miterlimit:10;stroke-opacity:1" />
      <path
         id="path2180"
         transform="matrix(0,-0.24,0.24,0,0,841.88976)"
         d="m 1813.9938,1240.9993 v 4.9968 h -18.0013 v -4.9968 z m 0,0"
         style="fill:#000000;fill-opacity:1;fill-rule:evenodd;stroke:#000000;stroke-width:1.00000405;stroke-linecap:round;stroke-linejoin:round;stroke-miterlimit:10;stroke-opacity:1" />
      <path
         id="path2182"
         transform="matrix(0,-0.24,0.24,0,0,841.88976)"
         d="m 1813.9938,1233.0078 v 5.9896 h -18.0013 v -5.9896 z m 0,0"
         style="fill:#000000;fill-opacity:1;fill-rule:evenodd;stroke:#000000;stroke-width:1.00000405;stroke-linecap:round;stroke-linejoin:round;stroke-miterlimit:10;stroke-opacity:1" />
      <path
         id="path2184"
         transform="matrix(0,-0.24,0.24,0,0,841.88976)"
         d="m 1813.9938,1225.9928 v 5.0131 h -18.0013 v -5.0131 z m 0,0"
         style="fill:#000000;fill-opacity:1;fill-rule:evenodd;stroke:#000000;stroke-width:1.00000405;stroke-linecap:round;stroke-linejoin:round;stroke-miterlimit:10;stroke-opacity:1" />
      <path
         id="path2186"
         transform="matrix(0,-0.24,0.24,0,0,841.88976)"
         d="m 1813.9938,1218.0013 v 4.9967 h -18.0013 v -4.9967 z m 0,0"
         style="fill:#000000;fill-opacity:1;fill-rule:evenodd;stroke:#000000;stroke-width:1.00000405;stroke-linecap:round;stroke-linejoin:round;stroke-miterlimit:10;stroke-opacity:1" />
      <path
         id="path2188"
         transform="matrix(0,-0.24,0.24,0,0,841.88976)"
         d="m 1744.0068,1218.0013 v 4.9967 h -17.0084 v -4.9967 z m 0,0"
         style="fill:#000000;fill-opacity:1;fill-rule:evenodd;stroke:#000000;stroke-width:1.00000405;stroke-linecap:round;stroke-linejoin:round;stroke-miterlimit:10;stroke-opacity:1" />
      <path
         id="path2190"
         transform="matrix(0,-0.24,0.24,0,0,841.88976)"
         d="m 1744.0068,1225.9928 v 5.0131 h -17.0084 v -5.0131 z m 0,0"
         style="fill:#000000;fill-opacity:1;fill-rule:evenodd;stroke:#000000;stroke-width:1.00000405;stroke-linecap:round;stroke-linejoin:round;stroke-miterlimit:10;stroke-opacity:1" />
      <path
         id="path2192"
         transform="matrix(0,-0.24,0.24,0,0,841.88976)"
         d="m 1744.0068,1233.0078 v 5.9896 h -17.0084 v -5.9896 z m 0,0"
         style="fill:#000000;fill-opacity:1;fill-rule:evenodd;stroke:#000000;stroke-width:1.00000405;stroke-linecap:round;stroke-linejoin:round;stroke-miterlimit:10;stroke-opacity:1" />
      <path
         id="path2194"
         transform="matrix(0,-0.24,0.24,0,0,841.88976)"
         d="m 1744.0068,1240.9993 v 4.9968 h -17.0084 v -4.9968 z m 0,0"
         style="fill:#000000;fill-opacity:1;fill-rule:evenodd;stroke:#000000;stroke-width:1.00000405;stroke-linecap:round;stroke-linejoin:round;stroke-miterlimit:10;stroke-opacity:1" />
      <path
         id="path2196"
         transform="matrix(0,-0.24,0.24,0,0,841.88976)"
         d="m 1744.0068,1249.0072 v 4.9967 h -17.0084 v -4.9967 z m 0,0"
         style="fill:#000000;fill-opacity:1;fill-rule:evenodd;stroke:#000000;stroke-width:1.00000405;stroke-linecap:round;stroke-linejoin:round;stroke-miterlimit:10;stroke-opacity:1" />
      <path
         id="path2198"
         transform="matrix(0,-0.24,0.24,0,0,841.88976)"
         d="m 1744.0068,1256.0059 v 5.9895 h -17.0084 v -5.9895 z m 0,0"
         style="fill:#000000;fill-opacity:1;fill-rule:evenodd;stroke:#000000;stroke-width:1.00000405;stroke-linecap:round;stroke-linejoin:round;stroke-miterlimit:10;stroke-opacity:1" />
      <path
         id="path2200"
         transform="matrix(0,-0.24,0.24,0,0,841.88976)"
         d="m 1744.0068,1263.9974 v 4.9967 h -17.0084 v -4.9967 z m 0,0"
         style="fill:#000000;fill-opacity:1;fill-rule:evenodd;stroke:#000000;stroke-width:1.00000405;stroke-linecap:round;stroke-linejoin:round;stroke-miterlimit:10;stroke-opacity:1" />
    </g>
    <use
       height="100%"
       width="100%"
       transform="translate(56.69333)"
       id="use12501"
       xlink:href="#surface26958"
       y="0"
       x="0" />
    <use
       height="100%"
       width="100%"
       transform="translate(56.692916)"
       id="use12509"
       xlink:href="#use12501"
       y="0"
       x="0" />
    <use
       height="100%"
       width="100%"
       transform="translate(-28.346458,-56.693794)"
       id="use12519"
       xlink:href="#use12501"
       y="0"
       x="0" />
    <use
       height="100%"
       width="100%"
       transform="translate(-28.346458,-56.693794)"
       id="use12521"
       xlink:href="#use12509"
       y="0"
       x="0" />
  </g>
  <g
     style="display:inline"
     id="layer3">
    <path
       transform="scale(0.75000003)"
       id="rect12423"
       d="m 68.566406,996.32812 c 0,2.29687 -1.859354,4.16018 -4.15625,4.16018 v 45.7617 h 49.916014 v -45.7617 c -2.29689,0 -4.15625,-1.86332 -4.15625,-4.16018 z m 1.09961,8.56248 h 39.765624 v 30.6406 H 69.666016 Z"
       style="fill:#000000;fill-opacity:1;stroke:none;stroke-width:0.13333333;stroke-miterlimit:4;stroke-dasharray:none;stroke-opacity:1" />
    <rect
       style="fill:none;stroke:#ff0000;stroke-width:0.11327611;stroke-miterlimit:4;stroke-dasharray:none;stroke-opacity:1"
       y="753.66785"
       x="52.250004"
       height="22.979948"
       width="29.82362"
       id="rect11582" />
    <use
       height="100%"
       width="100%"
       transform="translate(56.69333)"
       id="use12503"
       xlink:href="#rect12423"
       y="0"
       x="0" />
    <use
       height="100%"
       width="100%"
       transform="translate(56.69333)"
       id="use12505"
       xlink:href="#rect11582"
       y="0"
       x="0" />
    <use
       height="100%"
       width="100%"
       transform="translate(56.692916)"
       id="use12511"
       xlink:href="#use12503"
       y="0"
       x="0" />
    <use
       height="100%"
       width="100%"
       transform="translate(56.692916)"
       id="use12513"
       xlink:href="#use12505"
       y="0"
       x="0" />
    <use
       height="100%"
       width="100%"
       transform="translate(-28.346458,-56.693794)"
       id="use12523"
       xlink:href="#use12503"
       y="0"
       x="0" />
    <use
       height="100%"
       width="100%"
       transform="translate(-28.346458,-56.693794)"
       id="use12525"
       xlink:href="#use12505"
       y="0"
       x="0" />
    <use
       height="100%"
       width="100%"
       transform="translate(-28.346458,-56.693794)"
       id="use12527"
       xlink:href="#use12511"
       y="0"
       x="0" />
    <use
       height="100%"
       width="100%"
       transform="translate(-28.346458,-56.693794)"
       id="use12529"
       xlink:href="#use12513"
       y="0"
       x="0" />
  </g>
</svg>
